<?xml version="1.0" encoding="UTF-8"?>
<svg id="Calque_1" xmlns="http://www.w3.org/2000/svg" version="1.1" viewBox="0 0 1080 1350">
  <!-- Generator: Adobe Illustrator 29.7.1, SVG Export Plug-In . SVG Version: 2.1.1 Build 8)  -->
  <defs>
    <style>
      .st0 {
        fill: #1c1c1c;
      }
    </style>
  </defs>
  <path class="st0" d="M280.5,802.8c-61.1,0-110.7-49.7-110.7-110.7s49.7-110.7,110.7-110.7,110.7,49.7,110.7,110.7-49.7,110.7-110.7,110.7ZM280.5,588.6c-57,0-103.4,46.4-103.4,103.4s46.4,103.4,103.4,103.4,103.4-46.4,103.4-103.4-46.4-103.4-103.4-103.4Z"/>
  <path class="st0" d="M452.8,623h-26.5v-8.7h65.4v8.7h-26.5v56.7h-12.4v-56.7Z"/>
  <path class="st0" d="M498.7,614.3h12.4v65.4h-12.4v-65.4Z"/>
  <path class="st0" d="M521.3,614.3h56.8v8.7h-44.4v19.9h38.2v8.5h-38.2v28.3h-12.4v-65.4Z"/>
  <path class="st0" d="M585.2,614.3h56.8v8.7h-44.4v19.9h38.2v8.5h-38.2v28.3h-12.4v-65.4Z"/>
  <path class="st0" d="M663.5,614.3h13.7l30.1,65.4h-13.5l-6.7-15.5h-34l-6.7,15.5h-13.1l30-65.4ZM683.7,656.2l-13.6-31.5-13.5,31.5h27.1Z"/>
  <path class="st0" d="M712.9,614.3h14.7l40.9,49.7v-49.7h11.5v65.4h-12.4l-43.3-52.7v52.7h-11.5v-65.4Z"/>
  <path class="st0" d="M814.1,654.7l-29-40.4h14.4l21,30.8,20.9-30.8h14l-29,40.6v24.8h-12.4v-25Z"/>
  <path class="st0" d="M454.9,707.9h-29v-3.5h62.8v3.5h-29v61.9h-4.9v-61.9Z"/>
  <path class="st0" d="M496.6,704.5h38.7c13,0,20.3,7.2,20.3,18.4v.6c0,9.3-5.2,15.7-14.7,17.4,3.7,1,5.9,3.6,7.8,8.7l3.5,9.1c2.6,6.6,4.6,9.6,6.7,10.9v.3h-6.7c-1.2-2-2.6-4.6-4.8-10.6l-3-8.1c-2.3-6.3-5.3-8.9-11.4-8.9h-31.4v27.5h-4.9v-65.4ZM550.6,723.7v-.6c0-9.4-5.7-15.1-16-15.1h-33.1v30.9h33.1c10.3,0,16-5.7,16-15.1Z"/>
  <path class="st0" d="M564.8,737.8v-1.4c0-21.2,12.4-33.6,35.8-33.6s35.9,12.4,35.9,33.6v1.4c0,21.2-12.4,33.6-35.9,33.6s-35.8-12.4-35.8-33.6ZM631.5,737.9v-1.5c0-19.2-10.9-30.1-30.8-30.1s-30.8,10.9-30.8,30.1v1.5c0,19.2,10.9,30.1,30.8,30.1s30.8-10.9,30.8-30.1Z"/>
  <path class="st0" d="M647.2,704.5h4.9v65.4h-4.9v-65.4Z"/>
  <path class="st0" d="M664.5,704.5h4.9v61.9h47.8v3.5h-52.7v-65.4Z"/>
  <path class="st0" d="M725.1,704.5h4.9v61.9h47.8v3.5h-52.7v-65.4Z"/>
  <path class="st0" d="M785.6,704.5h54.1v3.5h-49.2v26.7h41v3.5h-41v28.2h49.8v3.5h-54.7v-65.4Z"/>
  <path class="st0" d="M873.4,707.9h-29v-3.5h62.8v3.5h-29v61.9h-4.9v-61.9Z"/>
  <path class="st0" d="M291.2,632.5v35c0,.8-.3,1.6-.9,2.2l-11.6,11.6-8.9,8.9-11.6,11.6c-.6.6-1.4.9-2.2.9h-50.1c-2.8,0-4.2-3.4-2.2-5.4l15.1-15.1c.6-.6,1.4-.9,2.2-.9h37.2c6.4,0,11.6-5.2,11.6-11.6v-52.3c0-2.8,3.4-4.2,5.4-2.2l15.1,15.1c.6.6.9,1.4.9,2.2Z"/>
  <path class="st0" d="M357.3,686.7l-15.1,15.1c-.6.6-1.4.9-2.2.9h-37.2c-6.4,0-11.6,5.2-11.6,11.6v52.3c0,2.8-3.4,4.2-5.4,2.2l-15.1-15.1c-.6-.6-.9-1.4-.9-2.2v-35c0-.8.3-1.6.9-2.2l11.6-11.6,8.9-8.9,11.5-11.5c.6-.6,1.4-.9,2.2-.9h50.1c2.8,0,4.2,3.4,2.2,5.4Z"/>
</svg>